<?xml version="1.0" encoding="UTF-8"?>
<svg width="15px" height="21px" viewBox="0 0 15 21" version="1.1" xmlns="http://www.w3.org/2000/svg" xmlns:xlink="http://www.w3.org/1999/xlink">
    <!-- Generator: Sketch 52.6 (67491) - http://www.bohemiancoding.com/sketch -->
    <title>Group</title>
    <desc>Created with Sketch.</desc>
    <g id="Symbols" stroke="none" stroke-width="1" fill="none" fill-rule="evenodd">
        <g id="Header" transform="translate(-1239.000000, -26.000000)" fill="#00395D">
            <g id="Group-10" transform="translate(1239.000000, 26.000000)">
                <g id="Group">
                    <g id="Group-8">
                        <path d="M13.5,9.0135 L13.5,1.5 C13.5,0.67125 12.82875,0 12,0 L3.75,0 C2.92125,0 2.25,0.67125 2.25,1.5 L2.25,8.148 C0.8625,9.50925 0,11.403 0,13.5 C0,17.64225 3.35775,21 7.5,21 C11.64225,21 15,17.64225 15,13.5 C15,11.8155 14.4375,10.266 13.5,9.0135 L13.5,9.0135 Z M3.75,1.5 L12,1.5 L12,7.5105 C10.74525,6.56625 9.1905,6 7.5,6 C6.132,6 4.854,6.372 3.75,7.01175 L3.75,1.5 L3.75,1.5 Z M7.5,19.5 C4.19175,19.5 1.5,16.80825 1.5,13.5 C1.5,10.19175 4.19175,7.5 7.5,7.5 C10.80825,7.5 13.5,10.19175 13.5,13.5 C13.5,16.80825 10.80825,19.5 7.5,19.5 L7.5,19.5 Z" id="Shape"></path>
                        <path d="M7.5,10.5 C6.6495,10.5 6,11.196 6,12.0465 L6,13.5465 C6,14.13075 6,14.7135 6.75,15.0015 L6.75,16.5 L8.25,16.5 L8.25,15.0015 C9,14.6985 9,14.11725 9,13.5465 L9,12.0465 C9,11.196 8.3505,10.5 7.5,10.5 L7.5,10.5 Z" id="Shape"></path>
                    </g>
                </g>
            </g>
        </g>
    </g>
</svg>